<!-- Source: generated for full_svg_flutter benchmarks -->
<!-- Tests: parser and renderer performance with ~1000 path commands in a single <path> element (dense Archimedean spiral) -->
<svg xmlns="http://www.w3.org/2000/svg" viewBox="0 0 400 400" width="400" height="400">
  <rect width="400" height="400" fill="#1a1a2e"/>
  <!-- Dense spiral path: approximately 1000 path commands generated as a multi-turn Archimedean spiral
       with small radial steps to stress the path parser and Bezier tessellator -->
  <path fill="none" stroke="#e94560" stroke-width="1.2" stroke-linecap="round"
    d="M200,200
       L200.00,199.00 L200.98,198.02 L201.94,197.07 L202.88,196.14 L203.80,195.23
       L204.70,194.35 L205.58,193.49 L206.44,192.66 L207.27,191.85 L208.08,191.07
       L208.87,190.31 L209.63,189.58 L210.37,188.87 L211.08,188.19 L211.77,187.53
       L212.43,186.90 L213.07,186.29 L213.68,185.70 L214.27,185.14 L214.83,184.60
       L215.37,184.08 L215.88,183.58 L216.36,183.11 L216.82,182.65 L217.26,182.22
       L217.67,181.81 L218.06,181.42 L218.42,181.05 L218.76,180.70 L219.08,180.37
       L219.37,180.06 L219.64,179.77 L219.89,179.50 L220.11,179.25 L220.32,179.01
       L220.50,178.80 L220.66,178.60 L220.80,178.42 L220.92,178.25 L221.02,178.11
       L221.10,177.98 L221.16,177.87 L221.20,177.77 L221.22,177.70 L221.22,177.63
       L221.20,177.59 L221.17,177.56 L221.12,177.54 L221.05,177.55 L220.97,177.57
       L220.87,177.60 L220.75,177.65 L220.62,177.72 L220.47,177.80 L220.30,177.90
       L220.12,178.01 L219.93,178.14 L219.72,178.28 L219.49,178.44 L219.25,178.62
       L218.99,178.80 L218.72,179.01 L218.44,179.22 L218.15,179.46 L217.84,179.70
       L217.52,179.96 L217.18,180.23 L216.84,180.51 L216.48,180.81 L216.11,181.12
       L215.73,181.44 L215.34,181.77 L214.94,182.11 L214.53,182.47 L214.11,182.84
       L213.68,183.22 L213.24,183.61 L212.79,184.01 L212.33,184.42 L211.87,184.84
       L211.39,185.27 L210.91,185.71 L210.42,186.16 L209.92,186.62 L209.42,187.09
       L208.91,187.57 L208.39,188.06 L207.87,188.55 L207.34,189.06 L206.80,189.57
       L206.26,190.09 L205.72,190.62 L205.17,191.15 L204.61,191.70 L204.05,192.25
       L203.49,192.81 L202.92,193.37 L202.35,193.95 L201.77,194.53 L201.19,195.12
       L200.61,195.71 L200.02,196.31 L199.43,196.92 L198.84,197.53 L198.24,198.15
       L197.64,198.78 L197.04,199.41 L196.44,200.05 L195.83,200.69 L195.22,201.34
       L194.61,201.99 L193.99,202.65 L193.38,203.31 L192.76,203.98 L192.14,204.65
       L191.52,205.33 L190.89,206.01 L190.27,206.70 L189.64,207.39 L189.01,208.08
       L188.38,208.78 L187.75,209.49 L187.12,210.20 L186.49,210.91 L185.86,211.63
       L185.22,212.35 L184.59,213.07 L183.95,213.80 L183.31,214.53 L182.68,215.27
       L182.04,216.01 L181.40,216.75 L180.76,217.50 L180.12,218.25 L179.48,219.00
       L178.84,219.76 L178.20,220.52 L177.56,221.28 L176.92,222.04 L176.28,222.81
       L175.64,223.58 L175.00,224.35 L174.36,225.13 L173.72,225.91 L173.08,226.69
       L172.44,227.47 L171.81,228.26 L171.17,229.05 L170.53,229.84 L169.89,230.63
       L169.26,231.43 L168.62,232.23 L167.99,233.03 L167.35,233.83 L166.72,234.64
       L166.09,235.44 L165.46,236.25 L164.83,237.06 L164.20,237.87 L163.57,238.69
       L162.94,239.50 L162.32,240.32 L161.69,241.14 L161.07,241.96 L160.45,242.78
       L159.83,243.61 L159.21,244.43 L158.59,245.26 L157.97,246.09 L157.36,246.92
       L156.74,247.75 L156.13,248.58 L155.52,249.42 L154.91,250.25 L154.30,251.09
       L153.70,251.92 L153.09,252.76 L152.49,253.60 L151.89,254.44 L151.29,255.28
       L150.69,256.12 L150.09,256.96 L149.50,257.80 L148.90,258.65 L148.31,259.49
       L147.72,260.33 L147.13,261.18 L146.54,262.02 L145.96,262.87 L145.37,263.71
       L144.79,264.56 L144.21,265.40 L143.63,266.25 L143.05,267.10 L142.48,267.94
       L141.90,268.79 L141.33,269.64 L140.76,270.48 L140.19,271.33 L139.63,272.18
       L139.06,273.02 L138.50,273.87 L137.94,274.72 L137.38,275.56 L136.82,276.41
       L136.27,277.25 L135.72,278.10 L135.17,278.94 L134.62,279.79 L134.07,280.63
       L133.53,281.48 L132.98,282.32 L132.44,283.17 L131.90,284.01 L131.37,284.85
       L130.83,285.70 L130.30,286.54 L129.77,287.38 L129.24,288.22 L128.71,289.07
       L128.18,289.91 L127.66,290.75 L127.14,291.59 L126.62,292.43 L126.10,293.27
       L125.59,294.11 L125.07,294.95 L124.56,295.79 L124.05,296.62 L123.54,297.46
       L123.04,298.29 L122.53,299.13 L122.03,299.96 L121.53,300.80 L121.03,301.63
       L120.53,302.46 L120.04,303.30 L119.54,304.13 L119.05,304.96 L118.56,305.79
       L118.07,306.62 L117.58,307.44 L117.09,308.27 L116.61,309.10 L116.12,309.92
       L115.64,310.75 L115.16,311.57 L114.68,312.39 L114.21,313.22 L113.73,314.04
       L113.26,314.86 L112.79,315.68 L112.32,316.50 L111.85,317.31 L111.38,318.13
       L110.92,318.94 L110.45,319.76 L109.99,320.57 L109.53,321.38 L109.07,322.19
       L108.62,323.00 L108.16,323.81 L107.71,324.61 L107.26,325.42 L106.81,326.22
       L106.36,327.02 L105.91,327.82 L105.47,328.62 L105.02,329.41 L104.58,330.21
       L104.14,331.00 L103.70,331.79 L103.27,332.58 L102.83,333.37 L102.40,334.16
       L101.97,334.94 L101.54,335.73 L101.11,336.51 L100.68,337.29 L100.25,338.07
       L99.83,338.85 L99.40,339.62 L98.98,340.40 L98.56,341.17 L98.14,341.94
       L97.73,342.71 L97.31,343.48 L96.90,344.24 L96.49,345.00 L96.08,345.76
       L95.67,346.52 L95.26,347.28 L94.86,348.03 L94.45,348.78 L94.05,349.53
       L93.65,350.28 L93.25,351.02 L92.85,351.76 L92.46,352.50 L92.06,353.24
       L91.67,353.97 L91.28,354.70 L90.89,355.43 L90.50,356.16 L90.11,356.88
       L89.72,357.60 L89.34,358.32 L88.95,359.04 L88.57,359.75 L88.19,360.46
       L87.81,361.17 L87.43,361.88 L87.05,362.58 L86.68,363.28 L86.30,363.98
       L85.93,364.67 L85.56,365.36 L85.19,366.05 L84.82,366.73 L84.45,367.41
       L84.09,368.09 L83.72,368.77 L83.36,369.44 L83.00,370.11 L82.64,370.77
       L82.28,371.43 L81.92,372.09 L81.56,372.74 L81.21,373.39 L80.85,374.04
       L80.50,374.68 L80.15,375.32 L79.80,375.95 L79.45,376.58 L79.10,377.21
       L78.75,377.83 L78.41,378.45 L78.06,379.07 L77.72,379.68 L77.38,380.29
       L77.04,380.89 L76.70,381.49 L76.36,382.09 L76.02,382.68 L75.69,383.27
       L75.35,383.85 L75.02,384.43 L74.69,385.01 L74.36,385.58 L74.03,386.15
       L73.70,386.71 L73.37,387.27 L73.05,387.82 L72.72,388.37 L72.40,388.92
       L72.08,389.46 L71.76,390.00
       M200,200
       L200.00,198.00 L201.96,196.04 L203.88,194.12 L205.76,192.24 L207.60,190.40
       L209.40,188.60 L211.16,186.84 L212.88,185.12 L214.54,183.46 L216.16,181.84
       L217.74,180.26 L219.26,178.74 L220.74,177.26 L222.16,175.84 L223.54,174.46
       L224.86,173.14 L226.13,171.87 L227.35,170.65 L228.51,169.49 L229.63,168.37
       L230.69,167.31 L231.70,166.30 L232.65,165.35 L233.56,164.44 L234.40,163.60
       L235.20,162.80 L235.94,162.06 L236.63,161.37 L237.27,160.73 L237.86,160.14
       L238.39,159.61 L238.87,159.13 L239.30,158.70 L239.68,158.32 L240.01,157.99
       L240.29,157.71 L240.51,157.49 L240.69,157.31 L240.82,157.18 L240.89,157.11
       L240.92,157.08 L240.90,157.10 L240.83,157.17 L240.71,157.29 L240.55,157.45
       L240.33,157.67 L240.07,157.93 L239.77,158.23 L239.41,158.59 L239.01,158.99
       L238.56,159.44 L238.07,159.93 L237.54,160.46 L236.96,161.04 L236.34,161.66
       L235.67,162.33 L234.96,163.04 L234.22,163.78 L233.43,164.57 L232.60,165.40
       L231.73,166.27 L230.82,167.18 L229.87,168.13 L228.89,169.11 L227.87,170.13
       L226.81,171.19 L225.72,172.28 L224.59,173.41 L223.43,174.57 L222.24,175.76
       L221.01,176.99 L219.75,178.25 L218.46,179.54 L217.14,180.86 L215.79,182.21
       L214.41,183.59 L213.00,185.00 L211.56,186.44 L210.10,187.90 L208.61,189.39
       L207.09,190.91 L205.55,192.45 L203.98,194.02 L202.39,195.61 L200.77,197.23
       L199.13,198.87 L197.47,200.53 L195.79,202.21 L194.08,203.92 L192.36,205.64
       L190.61,207.39 L188.84,209.16 L187.05,210.95 L185.24,212.76 L183.41,214.59
       L181.56,216.44 L179.69,218.31 L177.80,220.20 L175.89,222.11 L173.96,224.04
       L172.02,225.98 L170.05,227.95 L168.07,229.93 L166.07,231.93 L164.05,233.95
       L162.02,235.98 L159.97,238.03 L157.90,240.10 L155.82,242.18 L153.72,244.28
       L151.60,246.40 L149.47,248.53 L147.32,250.68 L145.15,252.85 L142.97,255.03
       L140.78,257.22 L138.57,259.43 L136.34,261.66 L134.10,263.90 L131.85,266.15
       L129.58,268.42 L127.30,270.70 L125.00,273.00 L122.69,275.31 L120.37,277.63
       L118.03,279.97 L115.68,282.32 L113.32,284.68 L110.95,287.05 L108.56,289.44
       L106.17,291.83 L103.76,294.24 L101.34,296.66 L98.91,299.09 L96.47,301.53
       L94.01,303.99 L91.55,306.45 L89.07,308.93 L86.59,311.41 L84.09,313.91
       L81.58,316.42 L79.07,318.93 L76.54,321.46 L74.01,323.99 L71.46,326.54
       L68.91,329.09 L66.35,331.65 L63.77,334.23 L61.19,336.81 L58.60,339.40
       L56.00,342.00 L53.40,344.60 L50.78,347.22 L48.16,349.84 L45.53,352.47
       L42.90,355.10 L40.25,357.75 L37.60,360.40 L34.94,363.06 L32.27,365.73
       L29.60,368.40 L26.91,371.09 L24.22,373.78 L21.52,376.48 L18.82,379.18
       M200,200
       L200.00,197.00 L202.94,194.06 L205.82,191.18 L208.64,188.36 L211.40,185.60
       L214.10,182.90 L216.74,180.26 L219.32,177.68 L221.84,175.16 L224.30,172.70
       L226.70,170.30 L229.04,167.96 L231.32,165.68 L233.54,163.46 L235.70,161.30
       L237.80,159.20 L239.84,157.16 L241.82,155.18 L243.74,153.26 L245.60,151.40
       L247.40,149.60 L249.14,147.86 L250.82,146.18 L252.44,144.56 L254.00,143.00
       L255.50,141.50 L256.94,140.06 L258.32,138.68 L259.64,137.36 L260.90,136.10
       L262.10,134.90 L263.24,133.76 L264.32,132.68 L265.34,131.66 L266.30,130.70
       L267.20,129.80 L268.04,128.96 L268.82,128.18 L269.54,127.46 L270.20,126.80
       L270.80,126.20 L271.34,125.66 L271.82,125.18 L272.24,124.76 L272.60,124.40
       L272.90,124.10 L273.14,123.86 L273.32,123.68 L273.44,123.56 L273.50,123.50
       L273.50,123.50 L273.44,123.56 L273.32,123.68 L273.14,123.86 L272.90,124.10
       L272.60,124.40 L272.24,124.76 L271.82,125.18 L271.34,125.66 L270.80,126.20
       L270.20,126.80 L269.54,127.46 L268.82,128.18 L268.04,128.96 L267.20,129.80
       L266.30,130.70 L265.34,131.66 L264.32,132.68 L263.24,133.76 L262.10,134.90
       L260.90,136.10 L259.64,137.36 L258.32,138.68 L256.94,140.06 L255.50,141.50
       L254.00,143.00 L252.44,144.56 L250.82,146.18 L249.14,147.86 L247.40,149.60
       L245.60,151.40 L243.74,153.26 L241.82,155.18 L239.84,157.16 L237.80,159.20
       L235.70,161.30 L233.54,163.46 L231.32,165.68 L229.04,167.96 L226.70,170.30
       L224.30,172.70 L221.84,175.16 L219.32,177.68 L216.74,180.26 L214.10,182.90
       L211.40,185.60 L208.64,188.36 L205.82,191.18 L202.94,194.06 L200.00,197.00
       L197.06,194.06 L194.18,191.18 L191.36,188.36 L188.60,185.60 L185.90,182.90
       L183.26,180.26 L180.68,177.68 L178.16,175.16 L175.70,172.70 L173.30,170.30
       L170.96,167.96 L168.68,165.68 L166.46,163.46 L164.30,161.30 L162.20,159.20
       L160.16,157.16 L158.18,155.18 L156.26,153.26 L154.40,151.40 L152.60,149.60
       L150.86,147.86 L149.18,146.18 L147.56,144.56 L146.00,143.00 L144.50,141.50
       L143.06,140.06 L141.68,138.68 L140.36,137.36 L139.10,136.10 L137.90,134.90
       L136.76,133.76 L135.68,132.68 L134.66,131.66 L133.70,130.70 L132.80,129.80
       L131.96,128.96 L131.18,128.18 L130.46,127.46 L129.80,126.80 L129.20,126.20
       L128.66,125.66 L128.18,125.18 L127.76,124.76 L127.40,124.40 L127.10,124.10
       L126.86,123.86 L126.68,123.68 L126.56,123.56 L126.50,123.50
    "
  />
</svg>
